<svg width="100%" height="100%" viewBox="0 0 1608 997" version="1.1" xmlns="http://www.w3.org/2000/svg" xmlns:xlink="http://www.w3.org/1999/xlink" xml:space="preserve" xmlns:serif="http://www.serif.com/" style="fill-rule:evenodd;clip-rule:evenodd;stroke-linejoin:bevel;stroke-miterlimit:1.5;">
    <g transform="matrix(1,0,0,1,0,-1141)">
        <g transform="matrix(1,0,0,1,1714.25,-0.0688095)">
            <rect x="-1714.25" y="1141.07" width="1607.96" height="996.985" style="fill:none;"/>
            <clipPath id="_clip1">
                <rect x="-1714.25" y="1141.07" width="1607.96" height="996.985"/>
            </clipPath>
            <g clip-path="url(#_clip1)">
                <g transform="matrix(1,0,0,1,-28.2214,28.2214)">
                    <g opacity="0.5">
                        <g transform="matrix(2.16436,0,0,2.4955,-2866.22,-1991.8)">
                            <path d="M927.496,1241.17C1011.66,1240.33 1140.19,1301.36 1141.77,1440.17C1142.85,1534.76 1021.62,1607.22 949.698,1598.17C839.198,1584.26 780.868,1495.49 778.677,1438.8C775.054,1345.04 811.688,1242.32 927.496,1241.17ZM927.507,1241.97C1011.32,1241.14 1139.27,1301.94 1140.85,1440.18C1141.5,1496.65 1098.29,1545.18 1048.19,1573.03C1014.84,1591.58 978.419,1600.97 949.83,1597.38C839.853,1583.53 781.781,1495.2 779.601,1438.78C775.995,1345.46 812.251,1243.12 927.507,1241.97L927.507,1241.97Z" style="fill:rgb(78,47,182);"/>
                        </g>
                        <g transform="matrix(1.38476,0,0,1.26281,-2019.5,-185.843)">
                            <path d="M927.496,1241.17C1011.66,1240.33 1151.32,1329.99 1133.79,1467.48C1121.69,1562.35 1021.62,1607.22 949.698,1598.17C839.198,1584.26 780.868,1495.49 778.677,1438.8C775.054,1345.04 811.688,1242.32 927.496,1241.17ZM927.509,1242.75C969.314,1242.34 1024.89,1264.43 1067.85,1303.67C1110.73,1342.83 1141.05,1399.11 1132.36,1467.26C1126.38,1514.18 1098.6,1548.71 1063.47,1570.42C1028.22,1592.19 985.55,1601.09 949.862,1596.6C840.28,1582.8 782.293,1494.95 780.12,1438.74C777.963,1382.91 790.121,1323.87 825.064,1285.35C848.309,1259.71 881.645,1243.21 927.509,1242.75L927.509,1242.75Z" style="fill:rgb(78,47,182);"/>
                        </g>
                        <g transform="matrix(0.665689,0.952059,-0.900611,0.629716,337.138,-275.246)">
                            <path d="M980.124,1242.2C1063.86,1251.13 1133.77,1355.71 1120.75,1437.46C1106.13,1529.24 994.678,1600.02 916.038,1586.79C843.383,1574.57 754.185,1479.32 761.854,1411.18C770.115,1337.78 890.425,1232.64 980.124,1242.2ZM979.951,1244.01C1021.36,1248.42 1059.31,1276.54 1085.34,1313.61C1111.37,1350.67 1125.49,1396.73 1119.05,1437.15C1111.82,1482.57 1080.57,1522.75 1041.45,1549.98C1002.31,1577.23 955.254,1591.54 916.308,1584.99C873.09,1577.73 824.003,1540.77 793.262,1497.82C772.891,1469.35 760.54,1438.26 763.563,1411.4C766.831,1382.36 787.912,1348.36 817.606,1318.56C862.29,1273.7 926.563,1238.32 979.951,1244.01Z" style="fill:rgb(78,47,182);"/>
                        </g>
                        <g transform="matrix(0.54069,0.773288,-0.761323,0.532324,-880.46,351.701)">
                            <path d="M980.124,1242.2C1063.86,1251.13 1133.77,1355.71 1120.75,1437.46C1106.13,1529.24 994.678,1600.02 916.038,1586.79C843.383,1574.57 754.185,1479.32 761.854,1411.18C770.115,1337.78 890.425,1232.64 980.124,1242.2ZM979.903,1244.34C1021.2,1248.74 1059.04,1276.8 1085,1313.77C1110.98,1350.78 1125.09,1396.75 1118.65,1437.11C1111.43,1482.44 1080.24,1522.55 1041.2,1549.73C1002.16,1576.91 955.23,1591.2 916.384,1584.67C873.254,1577.41 824.282,1540.51 793.603,1497.65C773.278,1469.25 760.944,1438.23 763.96,1411.43C768.042,1375.15 799.942,1331.13 841.771,1297.26C883.639,1263.36 935.535,1239.61 979.903,1244.34L979.903,1244.34Z" style="fill:rgb(78,47,182);"/>
                        </g>
                        <g transform="matrix(0.16422,0.234866,-0.240276,0.168003,-24.9525,1494.02)">
                            <path d="M980.124,1242.2C1063.86,1251.13 1133.77,1355.71 1120.75,1437.46C1106.13,1529.24 994.678,1600.02 916.038,1586.79C843.383,1574.57 754.185,1479.32 761.854,1411.18C770.115,1337.78 890.425,1232.64 980.124,1242.2ZM979.367,1248.98C1019.34,1253.24 1055.84,1280.6 1080.97,1316.38C1106.26,1352.4 1120.11,1397.12 1113.85,1436.41C1106.82,1480.53 1076.35,1519.49 1038.35,1545.94C1000.44,1572.34 954.938,1586.41 917.221,1580.07C875.153,1572.99 827.53,1536.81 797.607,1495C778.007,1467.62 765.882,1437.77 768.791,1411.93C772.77,1376.57 804.133,1333.84 844.901,1300.83C885.695,1267.8 936.138,1244.37 979.367,1248.98L979.367,1248.98Z" style="fill:rgb(78,47,182);"/>
                        </g>
                        <g transform="matrix(0.138647,0.198291,-0.202859,0.141841,-1138.31,1081.05)">
                            <path d="M980.124,1242.2C1063.86,1251.13 1133.77,1355.71 1120.75,1437.46C1106.13,1529.24 994.678,1600.02 916.038,1586.79C843.383,1574.57 754.185,1479.32 761.854,1411.18C770.115,1337.78 890.425,1232.64 980.124,1242.2ZM979.228,1250.23C1018.86,1254.46 1055,1281.62 1079.91,1317.09C1105.01,1352.84 1118.79,1397.22 1112.58,1436.21C1105.6,1480.01 1075.32,1518.66 1037.6,1544.92C999.993,1571.11 954.86,1585.12 917.439,1578.83C875.652,1571.8 828.385,1535.81 798.662,1494.28C779.259,1467.17 767.191,1437.65 770.07,1412.07C774.021,1376.96 805.241,1334.58 845.723,1301.8C886.234,1269 936.298,1245.65 979.228,1250.23L979.228,1250.23Z" style="fill:rgb(78,47,182);"/>
                        </g>
                        <g transform="matrix(0.338264,0.483781,-0.510629,0.357036,-1130.8,718.527)">
                            <path d="M980.124,1242.2C1063.86,1251.13 1139.69,1365.86 1126.67,1447.61C1112.05,1539.39 994.678,1600.02 916.038,1586.79C843.383,1574.57 766.041,1492.68 773.923,1396.83C781.726,1301.93 890.425,1232.64 980.124,1242.2ZM979.745,1245.39C1012.47,1248.88 1043.87,1269.02 1069.06,1296.9C1107.1,1339.01 1131.01,1398.89 1123.32,1447.13C1116.15,1492.11 1083.72,1529.39 1043.53,1553.88C1003.29,1578.39 955.221,1590.12 916.63,1583.63C845.319,1571.64 769.564,1491.16 777.3,1397.08C784.959,1303.93 891.708,1236 979.745,1245.39L979.745,1245.39Z" style="fill:rgb(78,47,182);"/>
                        </g>
                        <g transform="matrix(1.8448,0,0,1.58589,-2528.43,-656.404)">
                            <path d="M952.454,1235.29C1036.62,1234.75 1157.22,1301.02 1137.79,1438.2C1124.11,1534.71 1024.31,1622.3 951.714,1622.45C834.904,1622.69 767.713,1523.13 762.442,1427.45C758.628,1358.22 788.233,1236.32 952.454,1235.29ZM952.459,1236.55C1036.08,1236.02 1156.03,1301.7 1136.72,1437.99C1129.92,1485.96 1101.68,1531.7 1066.16,1565.48C1030.63,1599.27 987.798,1621.12 951.712,1621.19C835.588,1621.43 768.764,1522.49 763.524,1427.37C761.252,1386.14 770.908,1326.08 814.219,1284.41C843.161,1256.57 887.101,1236.96 952.459,1236.55L952.459,1236.55Z" style="fill:rgb(78,47,182);"/>
                        </g>
                        <g transform="matrix(2.36851,0,0,2.21381,-3049.58,-1545.22)">
                            <path d="M954.681,1213.43C1038.84,1212.9 1157.22,1301.02 1137.79,1438.2C1124.11,1534.71 1048.95,1607.46 976.359,1607.61C859.549,1607.86 742.852,1533.61 730.978,1438.6C719.548,1347.15 790.461,1214.47 954.681,1213.43ZM954.686,1214.33C1038.46,1213.8 1156.3,1301.52 1136.95,1438.06C1123.34,1534.1 1048.6,1606.56 976.357,1606.71C906.474,1606.85 836.628,1580.27 789.378,1538.51C757.963,1510.74 736.538,1476.27 731.815,1438.48C720.432,1347.41 791.14,1215.37 954.686,1214.33Z" style="fill:rgb(78,47,182);"/>
                        </g>
                        <g transform="matrix(2.68991,0,0,2.51922,-3418.64,-1979.6)">
                            <path d="M1075.56,1530.8C935.341,1680.56 757.172,1528.06 749.231,1418.06C742.592,1326.09 775.238,1245.15 835.7,1213.43" style="fill:none;stroke:rgb(78,47,182);stroke-width:0.77px;"/>
                        </g>
                    </g>
                </g>
            </g>
        </g>
    </g>
</svg>
