<svg width="100%" height="100%" viewBox="0 0 1608 997" version="1.1" xmlns="http://www.w3.org/2000/svg" xmlns:xlink="http://www.w3.org/1999/xlink" xml:space="preserve" xmlns:serif="http://www.serif.com/" style="fill-rule:evenodd;clip-rule:evenodd;stroke-linejoin:bevel;stroke-miterlimit:1.5;">
    <g transform="matrix(1,0,0,1,0,-2180.86)">
        <g transform="matrix(1,0,0,1,1714.25,1039.79)">
            <rect x="-1714.25" y="1141.07" width="1607.96" height="996.985" style="fill:none;"/>
            <g transform="matrix(0.582102,0,0,0.582102,-327.523,778.66)">
                <g opacity="0.5">
                    <g transform="matrix(2.16436,0,0,2.4955,-2866.22,-1991.8)">
                        <path d="M927.496,1241.17C1011.66,1240.33 1140.19,1301.36 1141.77,1440.17C1142.85,1534.76 1021.62,1607.22 949.698,1598.17C839.198,1584.26 780.868,1495.49 778.677,1438.8C775.054,1345.04 811.688,1242.32 927.496,1241.17ZM927.514,1242.55C1011.07,1241.71 1138.61,1302.37 1140.19,1440.19C1140.83,1496.45 1097.75,1544.79 1047.83,1572.55C1014.63,1591.01 978.385,1600.39 949.926,1596.81C840.323,1583.01 782.437,1494.99 780.264,1438.76C778.462,1392.12 786.64,1343.25 809.699,1305.9C832.614,1268.79 870.277,1243.12 927.514,1242.55L927.514,1242.55Z" style="fill:rgb(78,47,182);"/>
                    </g>
                    <g transform="matrix(1.38476,0,0,1.26281,-2019.5,-185.843)">
                        <path d="M927.496,1241.17C1011.66,1240.33 1151.32,1329.99 1133.79,1467.48C1121.69,1562.35 1021.62,1607.22 949.698,1598.17C839.198,1584.26 780.868,1495.49 778.677,1438.8C775.054,1345.04 811.688,1242.32 927.496,1241.17ZM927.519,1243.89C969.126,1243.48 1024.43,1265.49 1067.19,1304.54C1109.8,1343.46 1139.97,1399.37 1131.33,1467.11C1125.4,1513.66 1097.82,1547.89 1062.96,1569.43C1027.9,1591.08 985.471,1599.93 949.98,1595.47C841.057,1581.75 783.316,1494.57 781.156,1438.69C779.012,1383.18 791.054,1324.46 825.799,1286.15C848.877,1260.7 881.984,1244.34 927.519,1243.89L927.519,1243.89Z" style="fill:rgb(78,47,182);"/>
                    </g>
                    <g transform="matrix(0.847001,1.21137,-1.14591,0.80123,511.217,-665.581)">
                        <path d="M980.124,1242.2C1063.86,1251.13 1133.77,1355.71 1120.75,1437.46C1106.13,1529.24 994.678,1600.02 916.038,1586.79C843.383,1574.57 754.185,1479.32 761.854,1411.18C770.115,1337.78 890.425,1232.64 980.124,1242.2ZM979.891,1244.64C1021.13,1249.04 1058.93,1277.07 1084.86,1313.99C1110.78,1350.91 1124.87,1396.78 1118.45,1437.05C1111.25,1482.3 1080.09,1522.32 1041.12,1549.45C1002.11,1576.61 955.218,1590.89 916.403,1584.36C873.316,1577.12 824.39,1540.25 793.743,1497.43C773.477,1469.12 761.155,1438.19 764.162,1411.47C767.417,1382.55 788.444,1348.71 818.021,1319.02C862.578,1274.29 926.654,1238.97 979.891,1244.64L979.891,1244.64Z" style="fill:rgb(78,47,182);"/>
                    </g>
                    <g transform="matrix(0.54069,0.773288,-0.761323,0.532324,-862.154,389.298)">
                        <path d="M980.124,1242.2C1063.86,1251.13 1133.77,1355.71 1120.75,1437.46C1106.13,1529.24 994.678,1600.02 916.038,1586.79C843.383,1574.57 754.185,1479.32 761.854,1411.18C770.115,1337.78 890.425,1232.64 980.124,1242.2ZM979.744,1245.88C1020.63,1250.24 1058.06,1278.07 1083.76,1314.67C1109.5,1351.34 1123.52,1396.88 1117.15,1436.87C1110,1481.8 1079.03,1521.51 1040.34,1548.45C1001.64,1575.39 955.138,1589.62 916.632,1583.14C873.834,1575.94 825.277,1539.27 794.834,1496.74C774.758,1468.69 762.492,1438.07 765.471,1411.6C769.52,1375.63 801.244,1332.05 842.72,1298.47C884.261,1264.84 935.722,1241.18 979.744,1245.88L979.744,1245.88Z" style="fill:rgb(78,47,182);"/>
                    </g>
                    <g transform="matrix(0.138647,0.198291,-0.202859,0.141841,-1138.31,1081.05)">
                        <path d="M980.124,1242.2C1063.86,1251.13 1133.77,1355.71 1120.75,1437.46C1106.13,1529.24 994.678,1600.02 916.038,1586.79C843.383,1574.57 754.185,1479.32 761.854,1411.18C770.115,1337.78 890.425,1232.64 980.124,1242.2ZM978.585,1256C1016.6,1260.05 1051.12,1286.34 1075.01,1320.38C1099.25,1354.89 1112.71,1397.68 1106.72,1435.32C1099.98,1477.61 1070.58,1514.84 1034.16,1540.19C997.92,1565.43 954.503,1579.17 918.445,1573.11C877.954,1566.3 832.326,1531.2 803.524,1490.96C785.032,1465.12 773.225,1437.08 775.969,1412.7C779.791,1378.74 810.348,1337.97 849.508,1306.27C888.719,1274.52 937.032,1251.57 978.584,1256L978.585,1256Z" style="fill:rgb(78,47,182);"/>
                    </g>
                    <g transform="matrix(0.338264,0.483781,-0.510629,0.357036,-1112.49,756.124)">
                        <path d="M980.124,1242.2C1063.86,1251.13 1139.69,1365.86 1126.67,1447.61C1112.05,1539.39 994.678,1600.02 916.038,1586.79C843.383,1574.57 766.041,1492.68 773.923,1396.83C781.726,1301.93 890.425,1232.64 980.124,1242.2ZM979.473,1247.68C1011.64,1251.11 1042.45,1270.99 1067.21,1298.4C1104.79,1340.01 1128.51,1399.13 1120.91,1446.78C1113.85,1491.11 1081.82,1527.81 1042.21,1551.94C1002.52,1576.12 955.122,1587.76 917.055,1581.36C846.71,1569.53 772.094,1490.07 779.725,1397.25C787.28,1305.38 892.629,1238.42 979.473,1247.68L979.473,1247.68Z" style="fill:rgb(78,47,182);"/>
                    </g>
                    <g transform="matrix(1.8448,0,0,1.58589,-2528.43,-656.404)">
                        <path d="M952.454,1235.29C1036.62,1234.75 1157.22,1301.02 1137.79,1438.2C1124.11,1534.71 1024.31,1622.3 951.714,1622.45C834.904,1622.69 767.713,1523.13 762.442,1427.45C758.628,1358.22 788.233,1236.32 952.454,1235.29ZM952.464,1237.45C1035.69,1236.92 1155.17,1302.19 1135.95,1437.85C1129.18,1485.62 1101.04,1531.14 1065.67,1564.78C1030.29,1598.42 987.646,1620.21 951.711,1620.29C836.079,1620.53 769.518,1522.03 764.3,1427.31C762.041,1386.3 771.635,1326.55 814.715,1285.11C843.552,1257.36 887.342,1237.86 952.464,1237.45L952.464,1237.45Z" style="fill:rgb(78,47,182);"/>
                    </g>
                    <g transform="matrix(2.36851,0,0,2.21381,-3049.58,-1545.22)">
                        <path d="M954.681,1213.43C1038.84,1212.9 1157.22,1301.02 1137.79,1438.2C1124.11,1534.71 1048.95,1607.46 976.359,1607.61C859.549,1607.86 742.852,1533.61 730.978,1438.6C719.548,1347.15 790.461,1214.47 954.681,1213.43ZM954.69,1214.98C1038.19,1214.45 1155.63,1301.87 1136.35,1437.97C1122.79,1533.67 1048.35,1605.91 976.356,1606.06C906.618,1606.2 836.916,1579.68 789.764,1538.01C758.475,1510.36 737.12,1476.03 732.416,1438.4C721.067,1347.59 791.628,1216.01 954.69,1214.98L954.69,1214.98Z" style="fill:rgb(78,47,182);"/>
                    </g>
                    <g transform="matrix(2.68991,0,0,2.51922,-3418.64,-1979.6)">
                        <path d="M1075.56,1530.8C935.341,1680.56 757.172,1528.06 749.231,1418.06C742.592,1326.09 775.238,1245.15 835.7,1213.43" style="fill:none;stroke:rgb(78,47,182);stroke-width:1.32px;"/>
                    </g>
                </g>
            </g>
        </g>
    </g>
</svg>
