<?xml version="1.0" standalone="no"?>
<!DOCTYPE svg PUBLIC "-//W3C//DTD SVG 20010904//EN"
 "http://www.w3.org/TR/2001/REC-SVG-20010904/DTD/svg10.dtd">
<svg version="1.0" xmlns="http://www.w3.org/2000/svg"
 width="700.000000pt" height="700.000000pt" viewBox="0 0 700.000000 700.000000"
 preserveAspectRatio="xMidYMid meet">
<metadata>
Created by potrace 1.14, written by Peter Selinger 2001-2017
</metadata>
<g transform="translate(0.000000,700.000000) scale(0.100000,-0.100000)"
fill="#000000" stroke="none">
<path d="M10 3505 l0 -3495 3495 0 3495 0 0 3495 0 3495 -3495 0 -3495 0 0
-3495z m4320 2569 c329 -42 646 -158 906 -332 288 -194 497 -435 654 -757 148
-301 216 -586 236 -980 8 -167 -4 -239 -46 -277 l-30 -28 -1975 0 -1975 0 0
-304 c0 -260 3 -320 20 -420 43 -248 108 -452 211 -666 284 -590 789 -930
1484 -1001 149 -15 528 -6 674 15 376 56 733 196 1094 428 188 121 212 119
342 -30 l84 -97 -52 -53 c-354 -363 -1089 -628 -1827 -658 -645 -26 -1253 159
-1690 513 -76 62 -250 236 -308 308 l-32 40 0 -433 0 -432 -270 0 -270 0 0
1390 0 1390 -335 0 -335 0 0 155 0 155 347 2 346 3 22 130 c168 985 791 1667
1725 1889 301 72 681 90 1000 50z"/>
<path d="M3840 5733 c-295 -21 -527 -79 -755 -188 -469 -226 -796 -660 -935
-1240 -30 -123 -57 -291 -49 -298 2 -2 804 -2 1782 1 l1777 5 0 71 c0 39 -5
112 -10 161 -60 538 -294 959 -672 1211 -311 207 -721 307 -1138 277z"/>
</g>
</svg>
